<?xml version="1.0" standalone="no"?>
<!DOCTYPE svg PUBLIC "-//W3C//DTD SVG 20010904//EN"
 "http://www.w3.org/TR/2001/REC-SVG-20010904/DTD/svg10.dtd">
<svg version="1.0" xmlns="http://www.w3.org/2000/svg"
 width="1213.000000pt" height="1213.000000pt" viewBox="0 0 1213.000000 1213.000000"
 preserveAspectRatio="xMidYMid meet">
<metadata>
Created by potrace 1.11, written by Peter Selinger 2001-2013
</metadata>
<g transform="translate(0.000000,1213.000000) scale(0.100000,-0.100000)"
fill="#000000" stroke="none">
<path d="M7035 11969 c-342 -16 -679 -45 -1094 -95 l-224 -27 -110 -86 c-126
-98 -345 -306 -485 -461 -269 -297 -508 -654 -633 -947 -104 -242 -142 -429
-142 -708 0 -258 25 -432 119 -823 40 -170 49 -193 123 -340 159 -312 270
-471 453 -648 288 -278 738 -493 1308 -622 262 -60 400 -76 670 -76 281 -1
365 10 564 75 200 65 398 182 658 389 103 82 145 123 224 222 263 332 347 516
360 793 16 322 -111 722 -303 950 -116 138 -296 248 -543 333 -179 62 -340 87
-550 86 -147 0 -187 -4 -254 -22 -198 -55 -362 -151 -517 -302 -89 -88 -113
-117 -142 -180 -39 -82 -62 -181 -72 -305 -6 -69 -3 -92 19 -168 63 -214 154
-318 346 -397 162 -67 345 -95 523 -81 128 11 196 39 252 103 74 87 106 259
70 383 -41 140 -216 228 -400 201 -37 -6 -57 -17 -96 -55 -46 -45 -49 -50 -49
-99 0 -76 12 -97 69 -124 28 -12 51 -28 51 -33 0 -16 -67 -245 -74 -252 -3 -3
-34 4 -68 17 -169 61 -249 160 -264 330 -12 127 33 241 138 349 96 98 260 170
389 171 66 0 185 -33 270 -75 257 -127 357 -317 331 -627 -8 -96 -15 -125 -40
-176 -95 -191 -262 -340 -436 -389 -83 -23 -313 -28 -433 -9 -272 43 -516 156
-652 301 -105 113 -173 248 -225 450 -25 94 -25 105 -16 210 27 289 119 486
314 672 196 188 467 333 726 389 210 45 585 9 851 -82 476 -163 716 -362 898
-745 138 -289 206 -621 182 -882 -31 -330 -166 -601 -495 -995 -58 -69 -242
-225 -401 -338 -266 -189 -554 -315 -840 -365 -111 -20 -163 -23 -350 -23
-241 1 -377 15 -631 65 -441 86 -874 246 -1196 442 -395 240 -658 552 -914
1082 -50 103 -71 163 -103 290 -101 404 -131 589 -138 865 -6 236 8 376 57
565 117 455 462 1008 919 1478 74 75 132 139 129 142 -9 9 -1279 -154 -2223
-286 -446 -62 -1305 -177 -1677 -225 -76 -10 -138 -22 -138 -27 0 -12 2249
-11055 2256 -11079 3 -10 12 -18 19 -18 8 0 756 160 1662 356 907 195 1660
358 1676 361 20 4 27 11 27 28 0 13 -155 1037 -344 2276 -189 1240 -346 2267
-348 2284 l-3 29 250 38 c1485 224 2200 369 2827 574 471 154 809 319 1093
532 437 328 676 713 762 1227 20 124 28 503 14 662 -48 523 -202 1136 -519
2063 -275 806 -327 915 -494 1050 -260 207 -823 320 -1808 360 -280 11 -903
11 -1155 -1z"/>
</g>
</svg>
